<svg width="432" height="277" viewBox="0 0 432 277" fill="none" xmlns="http://www.w3.org/2000/svg">
<g clip-path="url(#clip0_13_897)">
<mask id="mask0_13_897" style="mask-type:luminance" maskUnits="userSpaceOnUse" x="0" y="0" width="432" height="277">
<path d="M432 0H0V277H432V0Z" fill="white"/>
</mask>
<g mask="url(#mask0_13_897)">
<path d="M228.985 164.236H231.86L234.27 167.406L234.904 168.252L238.497 173.029H235.622L233.255 169.859L232.663 169.055L228.985 164.236ZM239.385 160.177C239.385 162.46 238.973 164.433 238.149 166.096C237.324 167.759 236.193 169.041 234.756 169.943C233.318 170.845 231.677 171.296 229.83 171.296C227.984 171.296 226.343 170.845 224.905 169.943C223.468 169.041 222.337 167.759 221.512 166.096C220.688 164.433 220.276 162.46 220.276 160.177C220.276 157.894 220.688 155.921 221.512 154.258C222.337 152.595 223.468 151.313 224.905 150.411C226.343 149.509 227.984 149.058 229.83 149.058C231.677 149.058 233.318 149.509 234.756 150.411C236.193 151.313 237.324 152.595 238.149 154.258C238.973 155.921 239.385 157.894 239.385 160.177ZM236.848 160.177C236.848 158.303 236.535 156.721 235.908 155.431C235.288 154.142 234.446 153.166 233.382 152.504C232.325 151.841 231.141 151.51 229.83 151.51C228.52 151.51 227.333 151.841 226.269 152.504C225.212 153.166 224.37 154.142 223.742 155.431C223.122 156.721 222.812 158.303 222.812 160.177C222.812 162.051 223.122 163.633 223.742 164.923C224.37 166.212 225.212 167.188 226.269 167.85C227.333 168.513 228.52 168.844 229.83 168.844C231.141 168.844 232.325 168.513 233.382 167.85C234.446 167.188 235.288 166.212 235.908 164.923C236.535 163.633 236.848 162.051 236.848 160.177ZM257.998 149.354H260.619V163.686C260.619 165.166 260.27 166.487 259.573 167.649C258.882 168.805 257.906 169.718 256.645 170.387C255.384 171.049 253.904 171.38 252.206 171.38C250.508 171.38 249.028 171.049 247.767 170.387C246.505 169.718 245.526 168.805 244.828 167.649C244.138 166.487 243.793 165.166 243.793 163.686V149.354H246.414V163.475C246.414 164.532 246.646 165.472 247.111 166.297C247.576 167.114 248.239 167.759 249.098 168.231C249.965 168.696 251.001 168.928 252.206 168.928C253.411 168.928 254.447 168.696 255.313 168.231C256.18 167.759 256.842 167.114 257.3 166.297C257.765 165.472 257.998 164.532 257.998 163.475V149.354ZM265.854 171V149.354H278.917V151.679H268.475V158.993H278.241V161.318H268.475V168.675H279.086V171H265.854ZM295.48 154.765C295.353 153.694 294.838 152.863 293.937 152.271C293.035 151.679 291.928 151.383 290.618 151.383C289.659 151.383 288.821 151.538 288.102 151.848C287.391 152.158 286.834 152.585 286.432 153.127C286.038 153.67 285.84 154.286 285.84 154.977C285.84 155.555 285.978 156.051 286.253 156.467C286.534 156.876 286.894 157.217 287.331 157.492C287.767 157.76 288.225 157.982 288.705 158.158C289.184 158.327 289.624 158.465 290.026 158.57L292.224 159.162C292.788 159.31 293.415 159.515 294.106 159.775C294.803 160.036 295.469 160.392 296.103 160.843C296.744 161.287 297.273 161.857 297.689 162.555C298.104 163.253 298.312 164.109 298.312 165.123C298.312 166.293 298.006 167.35 297.393 168.294C296.787 169.238 295.899 169.989 294.729 170.546C293.567 171.102 292.154 171.38 290.491 171.38C288.941 171.38 287.598 171.13 286.464 170.63C285.337 170.13 284.449 169.432 283.8 168.537C283.159 167.642 282.796 166.603 282.712 165.419H285.418C285.488 166.237 285.763 166.913 286.242 167.449C286.728 167.977 287.341 168.372 288.081 168.632C288.828 168.886 289.631 169.013 290.491 169.013C291.491 169.013 292.39 168.851 293.186 168.527C293.982 168.196 294.613 167.738 295.078 167.153C295.543 166.561 295.776 165.87 295.776 165.081C295.776 164.362 295.575 163.778 295.173 163.327C294.771 162.876 294.243 162.509 293.588 162.227C292.932 161.946 292.224 161.699 291.463 161.488L288.8 160.727C287.109 160.24 285.77 159.546 284.783 158.644C283.797 157.742 283.304 156.562 283.304 155.104C283.304 153.892 283.631 152.835 284.287 151.933C284.949 151.024 285.837 150.319 286.95 149.819C288.07 149.312 289.321 149.058 290.702 149.058C292.097 149.058 293.338 149.308 294.423 149.808C295.508 150.302 296.367 150.978 297.002 151.838C297.643 152.697 297.981 153.673 298.016 154.765H295.48ZM301.438 151.679V149.354H317.673V151.679H310.866V171H308.245V151.679H301.438ZM324.339 149.354V171H321.718V149.354H324.339ZM347.859 160.177C347.859 162.46 347.447 164.433 346.622 166.096C345.798 167.759 344.667 169.041 343.23 169.943C341.792 170.845 340.15 171.296 338.304 171.296C336.458 171.296 334.816 170.845 333.379 169.943C331.941 169.041 330.811 167.759 329.986 166.096C329.162 164.433 328.749 162.46 328.749 160.177C328.749 157.894 329.162 155.921 329.986 154.258C330.811 152.595 331.941 151.313 333.379 150.411C334.816 149.509 336.458 149.058 338.304 149.058C340.15 149.058 341.792 149.509 343.23 150.411C344.667 151.313 345.798 152.595 346.622 154.258C347.447 155.921 347.859 157.894 347.859 160.177ZM345.322 160.177C345.322 158.303 345.009 156.721 344.382 155.431C343.762 154.142 342.92 153.166 341.856 152.504C340.799 151.841 339.615 151.51 338.304 151.51C336.994 151.51 335.806 151.841 334.742 152.504C333.685 153.166 332.843 154.142 332.216 155.431C331.596 156.721 331.286 158.303 331.286 160.177C331.286 162.051 331.596 163.633 332.216 164.923C332.843 166.212 333.685 167.188 334.742 167.85C335.806 168.513 336.994 168.844 338.304 168.844C339.615 168.844 340.799 168.513 341.856 167.85C342.92 167.188 343.762 166.212 344.382 164.923C345.009 163.633 345.322 162.051 345.322 160.177ZM369.431 149.354V171H366.894L355.099 154.004H354.888V171H352.266V149.354H354.803L366.641 166.392H366.852V149.354H369.431ZM386.514 154.765C386.387 153.694 385.873 152.863 384.971 152.271C384.069 151.679 382.963 151.383 381.652 151.383C380.694 151.383 379.855 151.538 379.136 151.848C378.425 152.158 377.868 152.585 377.467 153.127C377.072 153.67 376.875 154.286 376.875 154.977C376.875 155.555 377.012 156.051 377.287 156.467C377.569 156.876 377.928 157.217 378.365 157.492C378.802 157.76 379.26 157.982 379.739 158.158C380.218 158.327 380.658 158.465 381.06 158.57L383.259 159.162C383.822 159.31 384.449 159.515 385.14 159.775C385.837 160.036 386.503 160.392 387.138 160.843C387.779 161.287 388.307 161.857 388.723 162.555C389.139 163.253 389.347 164.109 389.347 165.123C389.347 166.293 389.04 167.35 388.427 168.294C387.821 169.238 386.933 169.989 385.764 170.546C384.601 171.102 383.188 171.38 381.525 171.38C379.975 171.38 378.633 171.13 377.498 170.63C376.371 170.13 375.483 169.432 374.835 168.537C374.194 167.642 373.831 166.603 373.746 165.419H376.452C376.522 166.237 376.797 166.913 377.276 167.449C377.762 167.977 378.375 168.372 379.115 168.632C379.862 168.886 380.666 169.013 381.525 169.013C382.526 169.013 383.424 168.851 384.22 168.527C385.017 168.196 385.647 167.738 386.112 167.153C386.577 166.561 386.81 165.87 386.81 165.081C386.81 164.362 386.609 163.778 386.207 163.327C385.806 162.876 385.277 162.509 384.622 162.227C383.967 161.946 383.259 161.699 382.498 161.488L379.834 160.727C378.143 160.24 376.804 159.546 375.818 158.644C374.831 157.742 374.338 156.562 374.338 155.104C374.338 153.892 374.666 152.835 375.321 151.933C375.983 151.024 376.871 150.319 377.984 149.819C379.105 149.312 380.356 149.058 381.737 149.058C383.132 149.058 384.372 149.308 385.457 149.808C386.542 150.302 387.402 150.978 388.036 151.838C388.677 152.697 389.015 153.673 389.051 154.765H386.514Z" fill="#555555"/>
<path d="M189.326 241.866H198.762L206.672 252.273L208.753 255.049L220.548 270.729H211.112L203.341 260.322L201.399 257.685L189.326 241.866ZM223.463 228.544C223.463 236.038 222.11 242.513 219.404 247.971C216.698 253.43 212.986 257.639 208.268 260.599C203.55 263.56 198.161 265.04 192.101 265.04C186.042 265.04 180.653 263.56 175.935 260.599C171.217 257.639 167.505 253.43 164.799 247.971C162.093 242.513 160.74 236.038 160.74 228.544C160.74 221.051 162.093 214.575 164.799 209.117C167.505 203.659 171.217 199.449 175.935 196.489C180.653 193.529 186.042 192.048 192.101 192.048C198.161 192.048 203.55 193.529 208.268 196.489C212.986 199.449 216.698 203.659 219.404 209.117C222.11 214.575 223.463 221.051 223.463 228.544ZM215.137 228.544C215.137 222.392 214.107 217.2 212.049 212.968C210.014 208.735 207.25 205.532 203.758 203.358C200.289 201.184 196.403 200.097 192.101 200.097C187.8 200.097 183.903 201.184 180.41 203.358C176.941 205.532 174.177 208.735 172.119 212.968C170.084 217.2 169.066 222.392 169.066 228.544C169.066 234.696 170.084 239.888 172.119 244.121C174.177 248.353 176.941 251.556 180.41 253.73C183.903 255.904 187.8 256.991 192.101 256.991C196.403 256.991 200.289 255.904 203.758 253.73C207.25 251.556 210.014 248.353 212.049 244.121C214.107 239.888 215.137 234.696 215.137 228.544ZM284.555 193.02H293.158V240.062C293.158 244.919 292.013 249.255 289.724 253.071C287.457 256.864 284.254 259.859 280.114 262.056C275.974 264.23 271.117 265.317 265.544 265.317C259.97 265.317 255.113 264.23 250.973 262.056C246.833 259.859 243.618 256.864 241.329 253.071C239.062 249.255 237.929 244.919 237.929 240.062V193.02H246.533V239.368C246.533 242.837 247.296 245.925 248.822 248.631C250.349 251.313 252.523 253.43 255.344 254.979C258.189 256.506 261.589 257.269 265.544 257.269C269.498 257.269 272.898 256.506 275.743 254.979C278.588 253.43 280.762 251.313 282.265 248.631C283.791 245.925 284.555 242.837 284.555 239.368V193.02ZM318.943 193.02V264.068H310.339V193.02H318.943ZM333.834 264.068V257.824L372.134 200.652H333.418V193.02H382.402V199.264L344.103 256.436H382.819V264.068H333.834Z" fill="#555555"/>
<mask id="mask1_13_897" style="mask-type:alpha" maskUnits="userSpaceOnUse" x="43" y="4" width="201" height="273">
<path d="M162.446 117.414C216.096 122.396 243.304 152.67 243.304 194.058C243.304 239.277 209.964 276.066 141.752 276.066C103.43 276.066 65.8751 263.803 43.2654 243.492L60.8933 213.218C78.9045 230.08 108.795 241.96 141.752 241.96C181.99 241.96 204.983 223.565 204.983 194.441C204.983 166.083 184.672 147.688 138.686 147.688H117.226V120.863L184.672 38.0888H55.5283V4.74902H232.574V30.8077L162.446 117.414Z" fill="black"/>
</mask>
<g mask="url(#mask1_13_897)">
<path d="M87.902 275.137L238.451 93.7937V-39.6475H-16.4558V275.137H87.902Z" fill="#555555"/>
</g>
<path d="M239.451 93.7939L88.9019 275.137" stroke="#555555" stroke-width="3.42157"/>
</g>
</g>
<defs>
<clipPath id="clip0_13_897">
<rect width="432" height="277" fill="white"/>
</clipPath>
</defs>
</svg>
